<svg width="100" height="100" viewBox="0 0 100 100" fill="none" xmlns="http://www.w3.org/2000/svg">
<rect x="1.5" y="1.5" width="97" height="97" rx="13.5" fill="#2B445B" stroke="#2BB8E6" stroke-width="3"/>
<rect x="1.5" y="1.5" width="97" height="97" rx="13.5" fill="#2B445B" stroke="#2BB8E6" stroke-width="3"/>
<path fill-rule="evenodd" clip-rule="evenodd" d="M29 26L32.8444 70.2372L49.5 75L66.1556 70.2372L70 26H29ZM61.7445 40.3374L49.4855 45.9062L49.4542 45.9185H61.3128L59.955 62.4854L49.5024 65.7267L49.4855 65.7194V65.7267L38.9751 62.4242L38.2998 54.0819H43.514L43.8516 58.4037L49.4373 59.9007L49.4855 59.886V59.8933L55.2665 58.1636L55.6621 51.2007L49.4855 51.1811L37.9573 51.1419L37.5642 45.9185L49.4855 40.6437L50.1801 40.3374H37.1132L36.4885 34.9964H62.2534L61.7445 40.3374Z" fill="#2BB8E6"/>
</svg>
