<svg xmlns="http://www.w3.org/2000/svg" viewBox="0 0 24 24" width="24" height="24">
    <path fill="#ea4335" d="M2.5 5.5v13A1.5 1.5 0 0 0 4 20h16a1.5 1.5 0 0 0 1.5-1.5V5.5M4 4h16a1.5 1.5 0 0 1 1.5 1.5V6a1.5 1.5 0 0 0-1.5 1.5V20H4V7.5A1.5 1.5 0 0 0 2.5 6V5.5A1.5 1.5 0 0 1 4 4z" opacity="0"/>
    <path fill="#4285f4" d="M19.5 20H15v-8.21L21 6.55V18.5a1.5 1.5 0 0 1-1.5 1.5z"/>
    <path fill="#34a853" d="M4.5 20H9v-8.21L3 6.55V18.5A1.5 1.5 0 0 0 4.5 20z"/>
    <path fill="#ea4335" d="M15 11.79V5.5A1.5 1.5 0 0 0 12 4.4L3 11v-4.5a1.5 1.5 0 0 1 1.5-1.5h15A1.5 1.5 0 0 1 21 6.5v4.5l-6-4.61z"/>
    <path fill="#fbbc04" d="M21 6.5v4.5L12 18 3 11V6.5l9 6.9z"/>
</svg>
