<svg width="100" height="100" viewBox="0 0 100 100" fill="none" xmlns="http://www.w3.org/2000/svg">
<rect x="1.5" y="1.5" width="97" height="97" rx="13.5" fill="#5B572B" stroke="#EFD81D" stroke-width="3"/>
<rect x="1.5" y="1.5" width="97" height="97" rx="13.5" fill="#5B572B" stroke="#EFD81D" stroke-width="3"/>
<g clip-path="url(#clip0_3_755)">
<path d="M33 27.25C29.6863 27.25 27 29.9363 27 33.25V66.75C27 70.0637 29.6863 72.75 33 72.75H67C70.3137 72.75 73 70.0637 73 66.75V33.25C73 29.9363 70.3137 27.25 67 27.25H33ZM52.033 62.7359C52.033 67.1641 49.4045 69.1852 45.5746 69.1852C43.0451 69.1852 41.2948 68.2409 40.1351 66.8958C39.4187 66.0649 39.8063 64.8446 40.7483 64.2823C41.7689 63.6731 42.9562 64.1686 43.9004 64.8906C44.2881 65.1872 44.7611 65.3664 45.3897 65.3664C46.8067 65.3664 47.7103 64.818 47.7103 62.675V50.3028C47.7103 49.1091 48.678 48.1414 49.8717 48.1414C51.0654 48.1414 52.033 49.1091 52.033 50.3028V62.7359ZM62.2598 69.1852C59.2047 69.1852 56.9701 68.0912 55.5199 66.4762C54.766 65.6367 55.1549 64.378 56.1347 63.8186C57.1231 63.2542 58.3326 63.6368 59.2004 64.3732C59.9518 65.011 60.8962 65.407 62.1674 65.407C63.954 65.407 65.104 64.5234 65.104 63.2945C65.104 61.832 63.9335 61.3141 61.9518 60.4508L60.8737 59.9937C57.7522 58.6836 55.6884 57.0281 55.6884 53.5445C55.6884 50.3352 58.1629 47.8977 62.0134 47.8977C64.1048 47.8977 65.7454 48.4432 67.0345 49.793C67.7677 50.5607 67.4473 51.7676 66.5504 52.3356C65.5906 52.9434 64.3953 52.469 63.3926 51.9349C62.9911 51.721 62.538 51.625 62.0031 51.625C60.7402 51.625 59.9393 52.4172 59.9393 53.4531C59.9393 54.7328 60.7402 55.2508 62.5987 56.0531L63.6768 56.5102C67.3527 58.0641 69.4165 59.6586 69.4165 63.2336C69.4165 67.0727 66.3567 69.1852 62.2598 69.1852Z" fill="#EFD81D"/>
</g>
<defs>
<clipPath id="clip0_3_755">
<rect width="46" height="52" fill="white" transform="translate(27 24)"/>
</clipPath>
</defs>
</svg>
