<svg xmlns="http://www.w3.org/2000/svg" viewBox="0 0 24 24" width="24" height="24">
    <path fill="#25D366" d="M12.01 2.01A10 10 0 0 0 2.01 12.01a9.96 9.96 0 0 0 1.35 4.97L2.01 22l5.16-1.35a9.96 9.96 0 0 0 4.84 1.34h.01a10 10 0 0 0 10-10 10 10 0 0 0-10-10z"/>
    <path fill="#FFF" d="M17.47 14.38c-.3-.15-1.76-.87-2.03-.97-.27-.1-.47-.15-.67.15-.2.3-.77.97-.94 1.17-.18.2-.35.22-.65.07-.3-.15-1.26-.47-2.4-1.49-.88-.79-1.48-1.76-1.65-2.06-.18-.3.02-.45.17-.6.13-.13.3-.35.45-.52.15-.17.2-.3.3-.5.1-.2.05-.38-.02-.53-.08-.15-.67-1.62-.92-2.22-.24-.58-.49-.5-.67-.5h-.58c-.2 0-.52.07-.79.37-.27.3-1.03 1-1.03 2.44s1.05 2.82 1.2 3.02c.15.2 2.06 3.15 5 4.41.7.3 1.25.48 1.68.61.7.22 1.34.19 1.84.11.56-.08 1.76-.72 2.01-1.41.25-.7.25-1.29.17-1.41-.07-.12-.27-.2-.57-.35z"/>
</svg>
